<svg xmlns="http://www.w3.org/2000/svg"  viewBox="0 0 100 100" width="100px" height="100px"><circle cx="78" cy="14" r="1" fill="#f1bc19"/><circle cx="50" cy="50" r="38" fill="#f9dbd2"/><circle cx="84" cy="16" r="4" fill="#f1bc19"/><circle cx="14" cy="26" r="2" fill="#ee3e54"/><circle cx="78" cy="77" r="2" fill="#fbcd59"/><circle cx="17" cy="78" r="4" fill="#fbcd59"/><circle cx="24" cy="83" r="2" fill="#ee3e54"/><circle cx="64.483" cy="78.517" r="2.483" fill="#fff"/><circle cx="16" cy="48" r="1" fill="#fff"/><circle cx="86" cy="31" r="1" fill="#f1bc19"/><circle cx="84" cy="45" r="2" fill="#fff"/><g><path fill="#3ce25f" d="M65.719,73H34.281C30.26,73,27,69.74,27,65.719V34.281C27,30.26,30.26,27,34.281,27h31.438 C69.74,27,73,30.26,73,34.281v31.438C73,69.74,69.74,73,65.719,73z"/></g><g><path fill="#472b29" d="M65.719,73.7H34.281c-4.401,0-7.981-3.58-7.981-7.981V34.281c0-4.401,3.581-7.981,7.981-7.981 h31.438c4.401,0,7.981,3.58,7.981,7.981v31.438C73.7,70.12,70.12,73.7,65.719,73.7z M34.281,27.7c-3.629,0-6.581,2.952-6.581,6.581 v31.438c0,3.629,2.952,6.581,6.581,6.581h31.438c3.629,0,6.581-2.952,6.581-6.581V34.281c0-3.629-2.952-6.581-6.581-6.581H34.281z"/></g><g><path fill="#fff" d="M52.781,60.5H39.219c-2.33,0-4.219-1.889-4.219-4.219V44.719c0-2.33,1.889-4.219,4.219-4.219 h13.563c2.33,0,4.219,1.889,4.219,4.219v11.563C57,58.611,55.111,60.5,52.781,60.5z"/><path fill="#fff" d="M57.569,54.006l5.61,4.987C64.272,59.964,66,59.188,66,57.725V43.275 c0-1.463-1.728-2.239-2.821-1.267l-5.61,4.987C57.207,47.316,57,47.777,57,48.261v4.478C57,53.223,57.207,53.684,57.569,54.006z"/><path fill="#472b29" d="M50.25,40.75h-6.063c-0.138,0-0.25-0.112-0.25-0.25s0.112-0.25,0.25-0.25h6.063 c0.138,0,0.25,0.112,0.25,0.25S50.388,40.75,50.25,40.75z"/><path fill="#472b29" d="M48.125,60.75h-8.906c-2.464,0-4.469-2.005-4.469-4.469V44.719c0-2.464,2.005-4.469,4.469-4.469 h2.219c0.138,0,0.25,0.112,0.25,0.25s-0.112,0.25-0.25,0.25h-2.219c-2.188,0-3.969,1.78-3.969,3.969v11.563 c0,2.188,1.78,3.969,3.969,3.969h8.906c0.138,0,0.25,0.112,0.25,0.25S48.263,60.75,48.125,60.75z"/><path fill="#472b29" d="M52.781,60.75H50.75c-0.138,0-0.25-0.112-0.25-0.25s0.112-0.25,0.25-0.25h2.031 c2.188,0,3.969-1.78,3.969-3.969V44.719c0-2.188-1.78-3.969-3.969-3.969c-0.138,0-0.25-0.112-0.25-0.25s0.112-0.25,0.25-0.25 c2.464,0,4.469,2.005,4.469,4.469v11.563C57.25,58.745,55.245,60.75,52.781,60.75z"/><path fill="#472b29" d="M64.298,59.674c-0.464,0-0.918-0.169-1.285-0.495l-5.61-4.987 c-0.415-0.369-0.653-0.898-0.653-1.454v-4.478c0-0.555,0.238-1.085,0.653-1.454l5.61-4.987c0.58-0.516,1.381-0.639,2.089-0.321 c0.708,0.318,1.148,0.998,1.148,1.774v3.788c0,0.138-0.112,0.25-0.25,0.25s-0.25-0.112-0.25-0.25v-3.788 c0-0.577-0.327-1.082-0.853-1.318c-0.528-0.237-1.122-0.145-1.552,0.238l-5.61,4.987c-0.308,0.274-0.485,0.667-0.485,1.08v4.478 c0,0.413,0.177,0.806,0.485,1.08l5.61,4.987c0.431,0.383,1.024,0.475,1.552,0.238c0.526-0.236,0.853-0.741,0.853-1.318V56.5 c0-0.138,0.112-0.25,0.25-0.25s0.25,0.112,0.25,0.25v1.225c0,0.776-0.44,1.456-1.148,1.774 C64.841,59.617,64.568,59.674,64.298,59.674z"/><path fill="#472b29" d="M66,54.312c-0.138,0-0.25-0.112-0.25-0.25V49.75c0-0.138,0.112-0.25,0.25-0.25 s0.25,0.112,0.25,0.25v4.313C66.25,54.201,66.138,54.312,66,54.312z"/></g></svg>