<?xml version="1.0" encoding="utf-8"?>
<!-- Generator: Adobe Illustrator 18.0.0, SVG Export Plug-In . SVG Version: 6.00 Build 0)  -->
<!DOCTYPE svg PUBLIC "-//W3C//DTD SVG 1.1//EN" "http://www.w3.org/Graphics/SVG/1.1/DTD/svg11.dtd">
<svg version="1.1" id="Layer_1" xmlns="http://www.w3.org/2000/svg" xmlns:xlink="http://www.w3.org/1999/xlink" x="0px" y="0px"
	 viewBox="0 0 40.9 40.4" enable-background="new 0 0 40.9 40.4" xml:space="preserve">
<g id="XMLID_1981_">
	<path id="XMLID_1988_" fill="none" stroke="#2DABE2" stroke-width="1.5" stroke-miterlimit="10" d="M20.5,39.4L20.5,39.4
		c-10.5,0-19-8.5-19-19v0c0-10.5,8.5-19,19-19l0,0c10.5,0,19,8.5,19,19v0C39.5,30.9,31,39.4,20.5,39.4z"/>
	<path id="XMLID_1987_" fill-rule="evenodd" clip-rule="evenodd" fill="#2DABE2" d="M31.5,25.9L31.5,25.9
		C31.5,25.9,31.5,25.9,31.5,25.9C31.5,25.9,31.5,25.9,31.5,25.9L31.5,25.9c-0.3-0.2-0.6-0.2-0.7-0.3c0,0,0,0,0,0
		c-1.2-0.4-2.2-1.2-2.9-2.1c-0.4-0.5-0.8-1.1-1-1.8c0,0,0,0,0,0c-0.1-0.3-0.1-0.6,0-0.8c0,0,0,0,0,0c0.2-0.3,0.6-0.5,1-0.6
		c0,0,0,0,0,0c0.5-0.2,1-0.3,1.4-0.7c0,0,0,0,0,0c0.1-0.1,0.1-0.1,0.2-0.3c0,0,0-0.1,0-0.1c0-0.1,0-0.2,0-0.4c0,0,0,0,0,0
		c-0.1-0.2-0.3-0.4-0.5-0.5h0c-0.3-0.1-0.6-0.2-0.8-0.1l0,0h0c-0.3,0.1-0.5,0.2-0.7,0.2c0,0,0,0,0,0c-0.3,0.1-0.6,0.1-0.8,0
		c0,0,0-0.1,0-0.2h0c0-0.5,0-1,0-1.5c0,0,0,0,0,0c0-0.8,0.1-1.6-0.1-2.5c0,0,0,0,0,0c-0.3-1.4-1.2-2.6-2.3-3.4
		c-0.8-0.6-1.8-0.9-2.8-1l0,0c-0.3,0-0.7,0-1,0c-1.4,0-2.8,0.4-3.9,1.2c-0.8,0.6-1.5,1.5-1.9,2.5v0c-0.4,1-0.4,2-0.3,3l0,0
		c0,0.7,0.1,1.3,0,2c0,0,0,0,0,0c-0.3,0.1-0.6,0-1,0h0c-0.2,0-0.5-0.1-0.7-0.2c0,0,0,0,0,0c-0.3-0.1-0.5,0-0.7,0.2c0,0,0,0,0,0
		c0,0,0,0,0,0c-0.2,0.1-0.4,0.3-0.4,0.6c0,0,0,0,0,0.1c0,0,0,0,0,0c0,0.2,0.1,0.3,0.2,0.4c0.1,0.1,0.2,0.1,0.3,0.2c0,0,0,0,0,0
		c0.5,0.3,1,0.5,1.5,0.7l0,0c0.3,0.1,0.6,0.4,0.7,0.7c0.1,0.4-0.1,0.8-0.3,1.2v0c-0.5,1.1-1.3,2-2.3,2.7c-0.5,0.4-1.1,0.6-1.7,0.8
		c0,0,0,0,0,0c-0.1,0-0.4,0.1-0.6,0.4c0,0,0,0,0,0.1c-0.1,0.2,0,0.4,0.1,0.5c0.1,0.1,0.2,0.2,0.3,0.2c0,0,0,0,0,0
		c0.5,0.3,1.1,0.4,1.6,0.5c0,0,0,0,0,0c0.4,0.1,0.7,0.1,1,0.2c0,0,0,0.1,0.1,0.3c0.1,0.3,0.1,0.6,0.2,1c0,0.1,0.1,0.2,0.2,0.2
		c0.2,0.1,0.4,0,0.4,0c0,0,0,0,0,0c0.8-0.1,1.7-0.3,2.5-0.1l0,0c0.8,0.2,1.5,0.8,2.3,1.3v0l0,0c0.5,0.3,1.1,0.7,1.9,0.7l0,0
		c0,0,0,0,0,0c0.5,0,1.1,0,1.6,0c0,0,0,0,0,0c0.4,0,0.9-0.2,1.2-0.4c0,0,0,0,0,0c0.8-0.5,1.6-1.1,2.4-1.4h0c0.3-0.1,0.6-0.1,1-0.1
		c0,0,0,0,0,0c0.7,0,1.4,0,2,0.1c0,0,0,0,0.1,0c0.1,0,0.2-0.1,0.2-0.1c0.1-0.1,0.1-0.1,0.1-0.1c0-0.1,0-0.1,0,0c0,0,0,0,0-0.1
		c0.1-0.4,0.2-0.8,0.4-1c0.1-0.1,0.2-0.1,0.4-0.1c0,0,0,0,0,0c0.6-0.1,1.1-0.3,1.6-0.5c0,0,0,0,0,0c0.2-0.1,0.5-0.2,0.7-0.4
		c0,0,0,0,0,0l0,0C31.8,26.3,31.8,26,31.5,25.9L31.5,25.9z"/>
</g>
</svg>
